<?xml version="1.0" encoding="UTF-8" standalone="no"?>
<!-- Uploaded to: SVG Repo, www.svgrepo.com, Generator: SVG Repo Mixer Tools -->

<svg
   version="1.1"
   id="_x32_"
   viewBox="0 0 512 512"
   xml:space="preserve"
   sodipodi:docname="blog-svgrepo-com.svg"
   inkscape:version="1.4 (e7c3feb1, 2024-10-09)"
   xmlns:inkscape="http://www.inkscape.org/namespaces/inkscape"
   xmlns:sodipodi="http://sodipodi.sourceforge.net/DTD/sodipodi-0.dtd"
   xmlns:xlink="http://www.w3.org/1999/xlink"
   xmlns="http://www.w3.org/2000/svg"
   xmlns:svg="http://www.w3.org/2000/svg"><defs
   id="defs8"><linearGradient
   id="linearGradient8"
   inkscape:collect="always"><stop
     style="stop-color:#0b54ac;stop-opacity:1;"
     offset="0"
     id="stop8" /><stop
     style="stop-color:#0074ff;stop-opacity:1;"
     offset="1"
     id="stop9" /></linearGradient>
	
	
	
	
	
	
	
	
	
<linearGradient
   inkscape:collect="always"
   xlink:href="#linearGradient8"
   id="linearGradient9"
   x1="0"
   y1="256"
   x2="512"
   y2="256"
   gradientUnits="userSpaceOnUse" /></defs><sodipodi:namedview
   id="namedview8"
   pagecolor="#ffffff"
   bordercolor="#000000"
   borderopacity="0.25"
   inkscape:showpageshadow="2"
   inkscape:pageopacity="0.0"
   inkscape:pagecheckerboard="0"
   inkscape:deskcolor="#d1d1d1"
   inkscape:zoom="0.38866245"
   inkscape:cx="339.62632"
   inkscape:cy="644.51813"
   inkscape:window-width="1680"
   inkscape:window-height="928"
   inkscape:window-x="0"
   inkscape:window-y="25"
   inkscape:window-maximized="1"
   inkscape:current-layer="_x32_" />
<style
   type="text/css"
   id="style1">
	.st0{fill:#000000;}
</style>
<rect
   x="293.186"
   y="307.18399"
   class="st0"
   width="131.57201"
   height="112.986"
   id="rect1"
   rx="10"
   ry="10" /><rect
   x="87.242996"
   y="308.89301"
   class="st0"
   width="154.448"
   height="17.162001"
   id="rect2"
   style="fill:#0074ff;fill-opacity:1" /><rect
   x="87.242996"
   y="401.298"
   class="st0"
   width="154.448"
   height="17.162001"
   id="rect3"
   style="fill:#0074ff;fill-opacity:1" /><rect
   x="87.242996"
   y="355.10001"
   class="st0"
   width="154.448"
   height="17.162001"
   id="rect4"
   style="fill:#0074ff;fill-opacity:1" /><path
   class="st0"
   d="M 416.428,0.004 H 95.58 C 42.787,0.013 0.016,42.792 0,95.577 v 303.685 c 0.025,62.262 50.463,112.717 112.742,112.734 H 399.266 C 461.536,511.979 511.983,461.532 512,399.262 V 95.577 C 511.992,42.792 469.212,0.013 416.428,0.004 Z m 48.377,399.258 c -0.008,18.15 -7.308,34.424 -19.198,46.34 -11.916,11.891 -28.19,19.19 -46.34,19.198 H 112.742 C 94.592,464.791 78.309,457.492 66.394,445.602 54.502,433.686 47.212,417.412 47.196,399.262 V 118.696 h 417.61 v 280.566 z"
   id="path4"
   style="fill:url(#linearGradient9);fill-opacity:1" /><path
   class="st0"
   d="m 88.96,267.908 h 34.583 c 19.71,0 31.642,-8.581 31.642,-26.548 0,-10.852 -6.167,-18.368 -12.2,-20.648 v -0.268 c 6.034,-3.352 10.592,-9.519 10.592,-19.432 0,-14.489 -9.251,-24.268 -29.086,-24.268 H 88.96 c -0.796,0 -1.332,0.536 -1.332,1.34 v 88.475 c 0,0.812 0.536,1.349 1.332,1.349 z m 18.378,-74.413 c 0,-0.528 0.251,-0.804 0.804,-0.804 h 13.944 c 7.5,0 11.925,3.888 11.925,10.584 0,6.712 -4.425,10.734 -11.925,10.734 h -13.944 c -0.553,0 -0.804,-0.268 -0.804,-0.804 z m 0,36.46 c 0,-0.528 0.251,-0.795 0.804,-0.795 h 15 c 8.061,0 12.343,4.424 12.343,11.405 0,7.097 -4.282,11.396 -12.343,11.396 h -15 c -0.553,0 -0.804,-0.276 -0.804,-0.812 z"
   id="path5"
   style="fill:#0074ff;fill-opacity:1" /><path
   class="st0"
   d="m 181.516,267.908 h 59.404 c 0.796,0 1.332,-0.536 1.332,-1.349 v -14.874 c 0,-0.813 -0.536,-1.341 -1.332,-1.341 h -40.224 c -0.544,0 -0.804,-0.268 -0.804,-0.812 v -71.447 c 0,-0.804 -0.528,-1.34 -1.341,-1.34 h -17.036 c -0.805,0 -1.332,0.536 -1.332,1.34 v 88.475 c 0,0.811 0.528,1.348 1.333,1.348 z"
   id="path6"
   style="fill:#0074ff;fill-opacity:1" /><path
   class="st0"
   d="m 292.708,269.374 c 15.963,0 28.558,-7.366 33.251,-22.115 2.011,-6.301 2.539,-11.396 2.539,-24.938 0,-13.542 -0.528,-18.637 -2.539,-24.939 -4.693,-14.739 -17.288,-22.114 -33.251,-22.114 -15.956,0 -28.558,7.375 -33.243,22.114 -2.02,6.302 -2.556,11.397 -2.556,24.939 0,13.542 0.536,18.637 2.556,24.938 4.684,14.75 17.287,22.115 33.243,22.115 z m -14.347,-66.628 c 2.011,-6.301 6.847,-10.055 14.346,-10.055 7.508,0 12.335,3.754 14.346,10.055 1.073,3.226 1.474,7.634 1.474,19.576 0,11.924 -0.402,16.357 -1.474,19.567 -2.011,6.31 -6.838,10.072 -14.346,10.072 -7.5,0 -12.335,-3.763 -14.346,-10.072 -1.064,-3.21 -1.475,-7.643 -1.475,-19.567 0,-11.942 0.411,-16.35 1.475,-19.576 z"
   id="path7"
   style="fill:#0074ff;fill-opacity:1" /><path
   class="st0"
   d="m 387.961,269.374 c 16.081,0 28.685,-8.171 33.251,-22.794 1.6,-4.952 2.263,-12.46 2.263,-20.505 v -7.517 c 0,-0.788 -0.536,-1.333 -1.332,-1.333 h -31.366 c -0.813,0 -1.349,0.545 -1.349,1.333 v 12.888 c 0,0.796 0.536,1.332 1.349,1.332 h 12.326 c 0.536,0 0.805,0.277 0.805,0.805 0,3.879 -0.403,6.703 -1.073,8.991 -1.878,6.026 -7.777,9.386 -14.614,9.386 -7.91,0 -12.88,-3.763 -14.891,-10.072 -1.064,-3.21 -1.466,-7.643 -1.466,-19.567 0,-11.941 0.402,-16.223 1.466,-19.441 2.011,-6.302 6.847,-10.19 14.631,-10.19 7.5,0 12.05,3.218 15.678,9.385 0.269,0.67 0.939,0.939 1.886,0.67 l 14.338,-6.033 c 0.796,-0.402 0.947,-1.206 0.536,-2.019 -4.299,-10.995 -15.419,-19.425 -32.439,-19.425 -16.232,0 -28.835,7.375 -33.527,22.114 -2.012,6.302 -2.556,11.397 -2.556,24.939 0,13.542 0.545,18.637 2.556,24.938 4.693,14.75 17.297,22.115 33.528,22.115 z"
   id="path8"
   style="fill:#0074ff;fill-opacity:1" />
</svg>
